<svg width="166" height="87" viewBox="0 0 166 87" fill="none" xmlns="http://www.w3.org/2000/svg">
<path d="M82.6894 35.5909H68.8377C68.671 35.5931 68.5054 35.5618 68.3509 35.4988C68.1964 35.4359 68.0561 35.3425 67.9382 35.2242C67.8202 35.106 67.7271 34.9652 67.6643 34.8103C67.6015 34.6554 67.5703 34.4894 67.5725 34.3222V20.4318C67.5725 16.4114 69.1652 12.5556 72.0001 9.71272C74.8351 6.86983 78.6802 5.27272 82.6894 5.27272V5.27272C84.6746 5.27272 86.6404 5.66482 88.4744 6.42664C90.3085 7.18845 91.975 8.30506 93.3787 9.71272C94.7825 11.1204 95.896 12.7915 96.6557 14.6307C97.4154 16.4699 97.8064 18.4411 97.8064 20.4318V20.4318C97.8064 22.4225 97.4154 24.3938 96.6557 26.2329C95.896 28.0721 94.7825 29.7433 93.3787 31.1509C91.975 32.5586 90.3085 33.6752 88.4744 34.437C86.6404 35.1988 84.6746 35.5909 82.6894 35.5909V35.5909Z" stroke="#00B37E" stroke-width="2" stroke-linecap="round" stroke-linejoin="round"/>
<path d="M77.4314 18.4545H87.2903" stroke="#996DFF" stroke-width="2" stroke-linecap="round" stroke-linejoin="round"/>
<path d="M77.4314 23.7273H87.2903" stroke="#996DFF" stroke-width="2" stroke-linecap="round" stroke-linejoin="round"/>
<path d="M119.215 64.9372V67.3694H106.848V64.9372H119.215ZM107.319 55.2393V77.7954H104.29V55.2393H107.319ZM121.852 55.2393V77.7954H118.839V55.2393H121.852Z" fill="#00B37E"/>
<path d="M133.843 78.1052C132.66 78.1052 131.588 77.909 130.625 77.5166C129.673 77.1138 128.852 76.5509 128.161 75.8279C127.481 75.105 126.958 74.2478 126.592 73.2563C126.226 72.2648 126.042 71.1804 126.042 70.003V69.3524C126.042 67.9891 126.246 66.7756 126.655 65.7118C127.063 64.6377 127.617 63.7289 128.318 62.9852C129.019 62.2416 129.814 61.6788 130.704 61.2966C131.593 60.9145 132.514 60.7234 133.466 60.7234C134.68 60.7234 135.726 60.93 136.605 61.3431C137.494 61.7562 138.221 62.3346 138.786 63.0782C139.351 63.8115 139.77 64.679 140.042 65.6808C140.314 66.6723 140.45 67.7567 140.45 68.9341V70.2199H127.769V67.8807H137.546V67.6638C137.504 66.9202 137.348 66.1972 137.076 65.4949C136.814 64.7926 136.395 64.2143 135.82 63.7598C135.245 63.3054 134.46 63.0782 133.466 63.0782C132.807 63.0782 132.2 63.2176 131.645 63.4965C131.091 63.765 130.615 64.1678 130.217 64.7048C129.82 65.2419 129.511 65.8977 129.291 66.6723C129.071 67.4469 128.962 68.3402 128.962 69.3524V70.003C128.962 70.7983 129.071 71.547 129.291 72.2493C129.521 72.9413 129.851 73.5507 130.28 74.0774C130.719 74.6041 131.248 75.0172 131.865 75.3167C132.493 75.6162 133.204 75.766 133.999 75.766C135.025 75.766 135.893 75.5594 136.605 75.1463C137.316 74.7332 137.939 74.1807 138.472 73.4887L140.23 74.8675C139.864 75.4148 139.398 75.9364 138.833 76.4321C138.268 76.9279 137.572 77.3307 136.746 77.6405C135.93 77.9503 134.962 78.1052 133.843 78.1052Z" fill="#00B37E"/>
<path d="M146.994 54V77.7954H144.075V54H146.994Z" fill="#00B37E"/>
<path d="M154.559 64.2556V84.24H151.64V61.0333H154.308L154.559 64.2556ZM166 69.2749V69.6002C166 70.8189 165.853 71.9498 165.561 72.993C165.268 74.0257 164.839 74.9243 164.274 75.6885C163.719 76.4528 163.034 77.0466 162.218 77.4701C161.402 77.8935 160.465 78.1052 159.408 78.1052C158.331 78.1052 157.379 77.9297 156.552 77.5785C155.725 77.2274 155.024 76.7161 154.449 76.0448C153.874 75.3735 153.413 74.5679 153.068 73.6281C152.733 72.6883 152.503 71.6297 152.377 70.4523V68.7172C152.503 67.4779 152.738 66.3676 153.084 65.3865C153.429 64.4053 153.884 63.5688 154.449 62.8768C155.024 62.1745 155.72 61.6426 156.536 61.2811C157.352 60.9093 158.294 60.7234 159.361 60.7234C160.429 60.7234 161.375 60.93 162.202 61.3431C163.029 61.7459 163.724 62.3243 164.289 63.0782C164.854 63.8321 165.278 64.7358 165.561 65.7893C165.853 66.8324 166 67.9943 166 69.2749ZM163.081 69.6002V69.2749C163.081 68.4384 162.992 67.6534 162.814 66.9202C162.636 66.1766 162.359 65.5259 161.982 64.9682C161.616 64.4002 161.145 63.9561 160.57 63.6359C159.994 63.3054 159.309 63.1402 158.514 63.1402C157.781 63.1402 157.143 63.2641 156.599 63.512C156.066 63.7598 155.61 64.0955 155.234 64.5189C154.857 64.932 154.548 65.4071 154.308 65.9442C154.078 66.4709 153.905 67.0183 153.79 67.5863V71.5987C153.999 72.3216 154.292 73.0033 154.669 73.6436C155.045 74.2736 155.548 74.7848 156.175 75.1773C156.803 75.5594 157.593 75.7505 158.545 75.7505C159.33 75.7505 160.005 75.5904 160.57 75.2702C161.145 74.9398 161.616 74.4905 161.982 73.9225C162.359 73.3544 162.636 72.7038 162.814 71.9705C162.992 71.2269 163.081 70.4368 163.081 69.6002Z" fill="#00B37E"/>
<path d="M11.3105 71.5687C11.3105 71.0296 11.2467 70.5539 11.119 70.1416C10.9914 69.7188 10.7681 69.3383 10.449 69C10.13 68.6617 9.6833 68.3393 9.109 68.0328C8.5347 67.7262 7.8062 67.4144 6.92348 67.0973C5.96632 66.759 5.09955 66.3837 4.32319 65.9715C3.54682 65.5486 2.88212 65.0677 2.3291 64.5285C1.7867 63.9894 1.36662 63.371 1.06883 62.6734C0.771048 61.9757 0.622156 61.1776 0.622156 60.2791C0.622156 59.3805 0.776366 58.5507 1.08478 57.7896C1.40384 57.0285 1.85052 56.3679 2.42481 55.8076C3.00975 55.2368 3.71167 54.7928 4.53057 54.4757C5.34948 54.1586 6.2641 54 7.27444 54C8.78463 54 10.0555 54.333 11.0871 54.9989C12.1294 55.6543 12.9164 56.5159 13.4481 57.5835C13.9799 58.6406 14.2458 59.7717 14.2458 60.9767H11.3105C11.3105 60.1099 11.1669 59.3436 10.8798 58.6776C10.6032 58.0011 10.1672 57.4725 9.57163 57.092C8.9867 56.7008 8.22097 56.5053 7.27444 56.5053C6.42363 56.5053 5.72171 56.6691 5.16868 56.9968C4.62629 57.3245 4.22215 57.7685 3.95627 58.3288C3.70103 58.889 3.57341 59.5285 3.57341 60.2474C3.57341 60.7336 3.65849 61.1776 3.82865 61.5793C3.99881 61.9704 4.25938 62.3351 4.61034 62.6734C4.97193 63.0116 5.41861 63.3235 5.95036 63.6089C6.49276 63.8943 7.13086 64.1691 7.86469 64.4334C9.00265 64.8034 9.97577 65.2156 10.784 65.6702C11.5923 66.1247 12.2517 66.6374 12.7622 67.2082C13.2727 67.7685 13.6449 68.408 13.8789 69.1268C14.1235 69.8351 14.2458 70.6385 14.2458 71.537C14.2458 72.4778 14.0862 73.3288 13.7672 74.0899C13.4588 74.851 13.0068 75.5011 12.4112 76.0402C11.8156 76.5793 11.0978 76.9968 10.2576 77.2928C9.41742 77.5782 8.47089 77.7209 7.41801 77.7209C6.50339 77.7209 5.60472 77.5729 4.722 77.277C3.84992 76.981 3.0576 76.537 2.34505 75.945C1.63249 75.3531 1.06351 74.6237 0.638109 73.7569C0.212703 72.8795 0 71.8647 0 70.7125H2.9353C2.9353 71.5053 3.05229 72.1871 3.28626 72.7579C3.52023 73.3182 3.8446 73.7833 4.25938 74.1533C4.67415 74.5233 5.14741 74.7981 5.67917 74.9778C6.22156 75.1469 6.80118 75.2315 7.41801 75.2315C8.26883 75.2315 8.98138 75.0835 9.55568 74.7875C10.1406 74.4915 10.5767 74.0687 10.8638 73.519C11.1616 72.9693 11.3105 72.3192 11.3105 71.5687Z" fill="#996DFF"/>
<path d="M26.4337 73.4397V60.2474H29.2573V77.4038H26.5772L26.4337 73.4397ZM26.9601 69.8245L28.0768 69.7928C28.0768 70.9345 27.9757 71.9915 27.7737 72.9641C27.5822 73.926 27.2632 74.7611 26.8165 75.4693C26.3805 76.1776 25.8009 76.7326 25.0777 77.1342C24.3545 77.5254 23.4664 77.7209 22.4136 77.7209C21.701 77.7209 21.0523 77.5994 20.4673 77.3562C19.893 77.1131 19.3932 76.7378 18.9678 76.2304C18.553 75.723 18.2286 75.0624 17.9947 74.2484C17.7713 73.4345 17.6597 72.4567 17.6597 71.315V60.2474H20.4673V71.3467C20.4673 72.1184 20.5365 72.7579 20.6747 73.2653C20.813 73.7622 20.9991 74.1586 21.2331 74.4545C21.467 74.74 21.7276 74.9408 22.0148 75.0571C22.3019 75.1734 22.5944 75.2315 22.8921 75.2315C23.8919 75.2315 24.6895 74.9937 25.2851 74.518C25.8806 74.0317 26.306 73.3816 26.5613 72.5677C26.8272 71.7431 26.9601 70.8288 26.9601 69.8245Z" fill="#996DFF"/>
<path d="M36.3243 63.5455V84H33.5007V60.2474H36.0691L36.3243 63.5455ZM45.9757 68.0486V69.6501C45.9757 71.0032 45.8481 72.1871 45.5929 73.2019C45.3483 74.2061 44.9813 75.0465 44.4921 75.723C44.0135 76.389 43.4233 76.8911 42.7214 77.2294C42.0195 77.5571 41.2165 77.7209 40.3125 77.7209C39.4085 77.7209 38.6215 77.5518 37.9515 77.2135C37.2921 76.8647 36.7338 76.3626 36.2765 75.7072C35.8298 75.0518 35.4735 74.2643 35.2076 73.3446C34.9524 72.4144 34.7769 71.3731 34.6812 70.2209V67.7791C34.7769 66.5634 34.9524 65.4746 35.2076 64.5127C35.4629 63.5402 35.8139 62.7156 36.2605 62.0391C36.7178 61.352 37.2762 60.8288 37.9356 60.4693C38.6056 60.1099 39.3873 59.9302 40.2806 59.9302C41.2059 59.9302 42.0195 60.0888 42.7214 60.4059C43.4339 60.723 44.0295 61.2146 44.5081 61.8805C44.9973 62.5359 45.3642 63.3763 45.6088 64.4017C45.8534 65.4165 45.9757 66.6321 45.9757 68.0486ZM43.1521 69.6501V68.0486C43.1521 67.0973 43.0777 66.2674 42.9288 65.5592C42.7905 64.851 42.5672 64.2643 42.2587 63.7992C41.9503 63.334 41.5621 62.9852 41.0942 62.7526C40.6263 62.5201 40.0626 62.4038 39.4032 62.4038C38.8395 62.4038 38.3397 62.5201 37.9037 62.7526C37.4783 62.9852 37.1113 63.3023 36.8029 63.704C36.4945 64.0951 36.2393 64.5444 36.0372 65.0518C35.8351 65.5486 35.6862 66.0666 35.5905 66.6057V71.4101C35.7713 72.0867 36.0106 72.7262 36.3084 73.3288C36.6062 73.9207 37.005 74.4017 37.5048 74.7717C38.0153 75.1416 38.6588 75.3266 39.4351 75.3266C40.0839 75.3266 40.6422 75.2104 41.1102 74.9778C41.5781 74.7452 41.961 74.3964 42.2587 73.9313C42.5672 73.4556 42.7905 72.8636 42.9288 72.1554C43.0777 71.4366 43.1521 70.6015 43.1521 69.6501Z" fill="#996DFF"/>
<path d="M52.4366 63.5455V84H49.613V60.2474H52.1813L52.4366 63.5455ZM62.088 68.0486V69.6501C62.088 71.0032 61.9604 72.1871 61.7051 73.2019C61.4605 74.2061 61.0936 75.0465 60.6044 75.723C60.1258 76.389 59.5355 76.8911 58.8336 77.2294C58.1317 77.5571 57.3287 77.7209 56.4248 77.7209C55.5208 77.7209 54.7338 77.5518 54.0638 77.2135C53.4044 76.8647 52.846 76.3626 52.3887 75.7072C51.942 75.0518 51.5858 74.2643 51.3199 73.3446C51.0646 72.4144 50.8892 71.3731 50.7935 70.2209V67.7791C50.8892 66.5634 51.0646 65.4746 51.3199 64.5127C51.5751 63.5402 51.9261 62.7156 52.3728 62.0391C52.8301 61.352 53.3884 60.8288 54.0478 60.4693C54.7178 60.1099 55.4995 59.9302 56.3929 59.9302C57.3181 59.9302 58.1317 60.0888 58.8336 60.4059C59.5462 60.723 60.1417 61.2146 60.6203 61.8805C61.1095 62.5359 61.4765 63.3763 61.7211 64.4017C61.9657 65.4165 62.088 66.6321 62.088 68.0486ZM59.2643 69.6501V68.0486C59.2643 67.0973 59.1899 66.2674 59.041 65.5592C58.9028 64.851 58.6794 64.2643 58.371 63.7992C58.0626 63.334 57.6744 62.9852 57.2064 62.7526C56.7385 62.5201 56.1748 62.4038 55.5155 62.4038C54.9518 62.4038 54.4519 62.5201 54.0159 62.7526C53.5905 62.9852 53.2236 63.3023 52.9152 63.704C52.6067 64.0951 52.3515 64.5444 52.1494 65.0518C51.9474 65.5486 51.7985 66.0666 51.7028 66.6057V71.4101C51.8836 72.0867 52.1228 72.7262 52.4206 73.3288C52.7184 73.9207 53.1172 74.4017 53.6171 74.7717C54.1276 75.1416 54.771 75.3266 55.5474 75.3266C56.1961 75.3266 56.7545 75.2104 57.2224 74.9778C57.6903 74.7452 58.0732 74.3964 58.371 73.9313C58.6794 73.4556 58.9028 72.8636 59.041 72.1554C59.1899 71.4366 59.2643 70.6015 59.2643 69.6501Z" fill="#996DFF"/>
<path d="M65.1349 69.6501V68.0169C65.1349 66.685 65.3051 65.5169 65.6454 64.5127C65.9858 63.4979 66.459 62.6522 67.0652 61.9757C67.6714 61.2992 68.3787 60.7918 69.1869 60.4535C69.9952 60.1047 70.862 59.9302 71.7872 59.9302C72.7338 59.9302 73.6112 60.1047 74.4194 60.4535C75.2277 60.7918 75.9349 61.2992 76.5411 61.9757C77.158 62.6522 77.6366 63.4979 77.9769 64.5127C78.3172 65.5169 78.4874 66.685 78.4874 68.0169V69.6501C78.4874 70.982 78.3172 72.1554 77.9769 73.1702C77.6366 74.1744 77.1633 75.0148 76.5571 75.6913C75.9509 76.3679 75.2437 76.8753 74.4354 77.2135C73.6271 77.5518 72.755 77.7209 71.8191 77.7209C70.8832 77.7209 70.0112 77.5518 69.2029 77.2135C68.3946 76.8753 67.6821 76.3679 67.0652 75.6913C66.459 75.0148 65.9858 74.1744 65.6454 73.1702C65.3051 72.1554 65.1349 70.982 65.1349 69.6501ZM67.9586 68.0169V69.6501C67.9586 70.5909 68.0543 71.4154 68.2457 72.1237C68.4372 72.8319 68.7084 73.4239 69.0593 73.8996C69.4103 74.3753 69.8197 74.7347 70.2877 74.9778C70.7556 75.2104 71.2661 75.3266 71.8191 75.3266C72.4572 75.3266 73.0156 75.2104 73.4942 74.9778C73.9834 74.7347 74.3875 74.3753 74.7066 73.8996C75.0256 73.4239 75.2649 72.8319 75.4244 72.1237C75.584 71.4154 75.6637 70.5909 75.6637 69.6501V68.0169C75.6637 67.0761 75.568 66.2569 75.3766 65.5592C75.1852 64.851 74.914 64.259 74.563 63.7833C74.212 63.297 73.7973 62.9376 73.3187 62.7051C72.8507 62.4619 72.3403 62.3404 71.7872 62.3404C71.2448 62.3404 70.7397 62.4619 70.2717 62.7051C69.8038 62.9376 69.3943 63.297 69.0434 63.7833C68.703 64.259 68.4372 64.851 68.2457 65.5592C68.0543 66.2569 67.9586 67.0761 67.9586 68.0169Z" fill="#996DFF"/>
<path d="M84.9482 62.9429V77.4038H82.1246V60.2474H84.8525L84.9482 62.9429ZM89.2395 60.1522L89.2555 62.8795C89.0215 62.8266 88.8088 62.7949 88.6173 62.7844C88.4365 62.7632 88.2238 62.7526 87.9792 62.7526C87.4475 62.7526 86.9795 62.8584 86.5754 63.0698C86.1819 63.2812 85.8416 63.5772 85.5544 63.9577C85.2673 64.3383 85.0386 64.7928 84.8685 65.3214C84.6983 65.8393 84.5813 66.4101 84.5175 67.0338L83.7837 67.5095C83.7837 66.4736 83.8634 65.5011 84.023 64.592C84.1931 63.6829 84.4537 62.8795 84.8046 62.1818C85.1556 61.4736 85.6023 60.9239 86.1447 60.5328C86.6977 60.1311 87.3571 59.9302 88.1228 59.9302C88.293 59.9302 88.5004 59.9567 88.745 60.0095C89.0002 60.0518 89.1651 60.0994 89.2395 60.1522Z" fill="#996DFF"/>
<path d="M99.178 60.2474V62.4989H91.1219V60.2474H99.178ZM93.7541 56.0772H96.5778V73.1543C96.5778 73.7357 96.6469 74.1744 96.7851 74.4704C96.934 74.7664 97.1201 74.9619 97.3435 75.0571C97.5668 75.1522 97.8061 75.1998 98.0614 75.1998C98.2528 75.1998 98.4655 75.1786 98.6995 75.1364C98.9334 75.0835 99.093 75.0412 99.178 75.0095L99.1621 77.4038C98.9707 77.4778 98.7154 77.5465 98.3964 77.6099C98.0773 77.6839 97.6732 77.7209 97.184 77.7209C96.5778 77.7209 96.0141 77.5782 95.493 77.2928C94.9718 77.0074 94.5518 76.5317 94.2327 75.8657C93.9136 75.1892 93.7541 74.2801 93.7541 73.1385V56.0772Z" fill="#996DFF"/>
</svg>
