<svg width="154" height="26" viewBox="0 0 154 26" fill="none" xmlns="http://www.w3.org/2000/svg">
<path fill-rule="evenodd" clip-rule="evenodd" d="M12.9339 3.43149C10.6348 3.43149 8.4295 4.32831 6.80325 5.92521C5.17695 7.52216 4.26299 9.68844 4.26299 11.9476V20.31C4.26272 20.3305 4.26657 20.3508 4.2744 20.3697C4.28222 20.3886 4.29377 20.4057 4.30829 20.4199C4.3228 20.4342 4.33997 20.4453 4.35875 20.4528C4.37753 20.4603 4.39758 20.464 4.41774 20.4637L4.4259 20.4636L12.9339 20.4637C14.0724 20.4637 15.1997 20.2435 16.2516 19.8157C17.3035 19.3878 18.2593 18.7607 19.0646 17.97C19.8698 17.1793 20.5087 16.2405 20.9446 15.2071C21.3805 14.1738 21.6048 13.0662 21.6048 11.9476C21.6048 10.829 21.3805 9.72142 20.9446 8.68808C20.5087 7.65473 19.8698 6.71593 19.0646 5.92521C18.2593 5.13449 17.3035 4.50736 16.2516 4.07952C15.1997 3.65168 14.0724 3.43149 12.9339 3.43149ZM12.9339 21.6666H4.4293C4.24621 21.6684 4.06462 21.6344 3.89507 21.5667C3.72405 21.4985 3.5688 21.3973 3.43844 21.2693C3.30809 21.1413 3.20525 20.9891 3.13593 20.8216C3.06719 20.6555 3.03275 20.4778 3.03455 20.2987V11.9476C3.03455 9.37049 4.0771 6.8986 5.9334 5.0758C7.78976 3.25295 10.3079 2.22858 12.9339 2.22858C14.2342 2.22858 15.5216 2.48006 16.7228 2.96862C17.924 3.45718 19.0153 4.17323 19.9344 5.0758C20.8536 5.97837 21.5826 7.04979 22.08 8.22883C22.5773 9.40788 22.8333 10.6715 22.8333 11.9476C22.8333 13.2237 22.5773 14.4873 22.08 15.6664C21.5826 16.8454 20.8536 17.9168 19.9344 18.8194C19.0153 19.722 17.924 20.438 16.7228 20.9266C15.5216 21.4151 14.2342 21.6666 12.9339 21.6666Z" fill="#00B37E"/>
<path fill-rule="evenodd" clip-rule="evenodd" d="M9.09015 10.7583C9.09015 10.4262 9.36515 10.1569 9.70437 10.1569H15.7599C16.0991 10.1569 16.3741 10.4262 16.3741 10.7583C16.3741 11.0905 16.0991 11.3598 15.7599 11.3598H9.70437C9.36515 11.3598 9.09015 11.0905 9.09015 10.7583Z" fill="#996DFF"/>
<path fill-rule="evenodd" clip-rule="evenodd" d="M9.09015 13.9297C9.09015 13.5975 9.36515 13.3282 9.70437 13.3282H15.7599C16.0991 13.3282 16.3741 13.5975 16.3741 13.9297C16.3741 14.2619 16.0991 14.5311 15.7599 14.5311H9.70437C9.36515 14.5311 9.09015 14.2619 9.09015 13.9297Z" fill="#996DFF"/>
<path d="M116.75 11.0531V12.8439H107.843V11.0531H116.75ZM108.182 3.91253V20.5206H106V3.91253H108.182ZM118.649 3.91253V20.5206H116.479V3.91253H118.649Z" fill="#00B37E"/>
<path d="M127.285 20.7487C126.433 20.7487 125.661 20.6042 124.968 20.3153C124.282 20.0187 123.69 19.6042 123.193 19.0719C122.703 18.5396 122.326 17.9085 122.063 17.1784C121.799 16.4484 121.667 15.65 121.667 14.783V14.304C121.667 13.3002 121.814 12.4067 122.108 11.6234C122.402 10.8326 122.801 10.1634 123.306 9.61584C123.811 9.06833 124.384 8.65389 125.024 8.37252C125.665 8.09116 126.328 7.95048 127.014 7.95048C127.888 7.95048 128.642 8.10257 129.275 8.40674C129.915 8.71092 130.439 9.13677 130.846 9.68428C131.253 10.2242 131.554 10.863 131.75 11.6006C131.946 12.3306 132.044 13.1291 132.044 13.996V14.9427H122.91V13.2203H129.953V13.0606C129.923 12.5131 129.81 11.9808 129.614 11.4637C129.425 10.9466 129.124 10.5208 128.709 10.1862C128.295 9.85158 127.73 9.68428 127.014 9.68428C126.539 9.68428 126.102 9.78694 125.703 9.99226C125.303 10.19 124.96 10.4866 124.674 10.882C124.388 11.2774 124.165 11.7603 124.007 12.3306C123.849 12.901 123.77 13.5587 123.77 14.304V14.783C123.77 15.3686 123.849 15.9199 124.007 16.437C124.173 16.9465 124.41 17.3952 124.719 17.783C125.036 18.1708 125.416 18.475 125.861 18.6955C126.313 18.916 126.825 19.0263 127.398 19.0263C128.137 19.0263 128.762 18.8742 129.275 18.57C129.787 18.2659 130.235 17.859 130.62 17.3495L131.886 18.3647C131.622 18.7678 131.287 19.1518 130.88 19.5168C130.473 19.8818 129.972 20.1784 129.376 20.4065C128.788 20.6346 128.091 20.7487 127.285 20.7487Z" fill="#00B37E"/>
<path d="M136.758 3V20.5206H134.655V3H136.758Z" fill="#00B37E"/>
<path d="M142.206 10.5512V25.2657H140.104V8.17861H142.025L142.206 10.5512ZM150.447 14.2469V14.4865C150.447 15.3838 150.341 16.2165 150.13 16.9845C149.919 17.745 149.61 18.4066 149.203 18.9693C148.804 19.532 148.31 19.9693 147.722 20.281C147.135 20.5928 146.46 20.7487 145.699 20.7487C144.923 20.7487 144.237 20.6194 143.642 20.3609C143.046 20.1023 142.541 19.7259 142.127 19.2316C141.712 18.7373 141.381 18.1442 141.132 17.4522C140.891 16.7602 140.725 15.9807 140.635 15.1138V13.8363C140.725 12.9238 140.895 12.1063 141.144 11.3839C141.392 10.6615 141.72 10.0455 142.127 9.536C142.541 9.0189 143.043 8.62727 143.63 8.36112C144.218 8.08736 144.896 7.95048 145.665 7.95048C146.434 7.95048 147.116 8.10257 147.711 8.40674C148.306 8.70331 148.807 9.12916 149.214 9.68428C149.621 10.2394 149.927 10.9048 150.13 11.6804C150.341 12.4485 150.447 13.304 150.447 14.2469ZM148.344 14.4865V14.2469C148.344 13.631 148.28 13.053 148.152 12.5131C148.024 11.9656 147.824 11.4865 147.553 11.0759C147.289 10.6577 146.95 10.3307 146.535 10.0949C146.121 9.85158 145.627 9.72991 145.055 9.72991C144.527 9.72991 144.067 9.82116 143.676 10.0037C143.291 10.1862 142.963 10.4333 142.692 10.7451C142.421 11.0493 142.199 11.3991 142.025 11.7945C141.859 12.1823 141.735 12.5854 141.652 13.0036V15.9579C141.803 16.4902 142.014 16.9921 142.285 17.4636C142.556 17.9275 142.918 18.3039 143.37 18.5929C143.823 18.8742 144.391 19.0149 145.077 19.0149C145.642 19.0149 146.128 18.897 146.535 18.6613C146.95 18.418 147.289 18.0872 147.553 17.6689C147.824 17.2507 148.024 16.7716 148.152 16.2317C148.28 15.6842 148.344 15.1024 148.344 14.4865Z" fill="#00B37E"/>
<path d="M39.9829 15.8837C39.9829 15.4884 39.9379 15.1395 39.8478 14.8372C39.7578 14.5271 39.6001 14.2481 39.3749 14C39.1498 13.7519 38.8345 13.5155 38.4291 13.2907C38.0238 13.0659 37.5096 12.8372 36.8866 12.6047C36.211 12.3566 35.5993 12.0814 35.0513 11.7791C34.5034 11.469 34.0342 11.1163 33.6439 10.7209C33.2611 10.3256 32.9646 9.87209 32.7544 9.36047C32.5442 8.84884 32.4391 8.26357 32.4391 7.60465C32.4391 6.94574 32.548 6.33721 32.7656 5.77907C32.9908 5.22093 33.3061 4.73643 33.7114 4.32558C34.1243 3.90698 34.6197 3.5814 35.1977 3.34884C35.7757 3.11628 36.4212 3 37.1343 3C38.2002 3 39.0972 3.24419 39.8253 3.73256C40.5609 4.21318 41.1164 4.84496 41.4917 5.62791C41.867 6.4031 42.0547 7.23256 42.0547 8.11628H39.9829C39.9829 7.48062 39.8816 6.9186 39.6789 6.43023C39.4838 5.93411 39.176 5.54651 38.7557 5.26744C38.3428 4.98062 37.8024 4.83721 37.1343 4.83721C36.5338 4.83721 36.0384 4.95736 35.6481 5.19767C35.2652 5.43798 34.98 5.76357 34.7923 6.17442C34.6122 6.58527 34.5221 7.05426 34.5221 7.5814C34.5221 7.93798 34.5822 8.26357 34.7023 8.55814C34.8224 8.84496 35.0063 9.1124 35.254 9.36047C35.5092 9.60853 35.8245 9.83721 36.1998 10.0465C36.5826 10.2558 37.033 10.4574 37.5509 10.6512C38.3541 10.9225 39.0409 11.2248 39.6114 11.5581C40.1819 11.8915 40.6473 12.2674 41.0076 12.686C41.3679 13.0969 41.6306 13.5659 41.7957 14.093C41.9684 14.6124 42.0547 15.2016 42.0547 15.8605C42.0547 16.5504 41.9421 17.1744 41.7169 17.7326C41.4992 18.2907 41.1802 18.7674 40.7599 19.1628C40.3395 19.5581 39.8328 19.8643 39.2398 20.0814C38.6468 20.2907 37.9788 20.3953 37.2356 20.3953C36.5901 20.3953 35.9558 20.2868 35.3328 20.0698C34.7173 19.8527 34.1581 19.5271 33.6551 19.093C33.1522 18.6589 32.7506 18.124 32.4504 17.4884C32.1501 16.845 32 16.1008 32 15.2558H34.0717C34.0717 15.8372 34.1543 16.3372 34.3194 16.7558C34.4846 17.1667 34.7135 17.5078 35.0063 17.7791C35.299 18.0504 35.633 18.2519 36.0084 18.3837C36.3912 18.5078 36.8003 18.5698 37.2356 18.5698C37.8361 18.5698 38.3391 18.4612 38.7444 18.2442C39.1573 18.0271 39.465 17.7171 39.6677 17.314C39.8779 16.9109 39.9829 16.4341 39.9829 15.8837Z" fill="#996DFF"/>
<path d="M50.6569 17.2558V7.5814H52.6498V20.1628H50.7582L50.6569 17.2558ZM51.0285 14.6047L51.8166 14.5814C51.8166 15.4186 51.7453 16.1938 51.6027 16.907C51.4676 17.6124 51.2424 18.2248 50.9271 18.7442C50.6194 19.2636 50.2103 19.6705 49.6999 19.9651C49.1894 20.2519 48.5627 20.3953 47.8195 20.3953C47.3166 20.3953 46.8587 20.3062 46.4459 20.1279C46.0405 19.9496 45.6877 19.6744 45.3875 19.3023C45.0947 18.9302 44.8658 18.4457 44.7007 17.8488C44.543 17.2519 44.4642 16.5349 44.4642 15.6977V7.5814H46.4459V15.7209C46.4459 16.2868 46.4947 16.7558 46.5922 17.1279C46.6898 17.4922 46.8212 17.7829 46.9863 18C47.1515 18.2093 47.3354 18.3566 47.538 18.4419C47.7407 18.5271 47.9471 18.5698 48.1573 18.5698C48.8629 18.5698 49.4259 18.3953 49.8462 18.0465C50.2666 17.6899 50.5668 17.2132 50.747 16.6163C50.9346 16.0116 51.0285 15.3411 51.0285 14.6047Z" fill="#996DFF"/>
<path d="M57.6378 10V25H55.6448V7.5814H57.4576L57.6378 10ZM64.4497 13.3023V14.4767C64.4497 15.469 64.3597 16.3372 64.1795 17.0814C64.0069 17.8178 63.7479 18.4341 63.4026 18.9302C63.0648 19.4186 62.6482 19.7868 62.1528 20.0349C61.6574 20.2752 61.0907 20.3953 60.4526 20.3953C59.8146 20.3953 59.2591 20.2713 58.7862 20.0233C58.3208 19.7674 57.9268 19.3992 57.604 18.9186C57.2887 18.438 57.0373 17.8605 56.8496 17.186C56.6695 16.5039 56.5456 15.7403 56.478 14.8953V13.1047C56.5456 12.2132 56.6695 11.4147 56.8496 10.7093C57.0298 9.99612 57.2775 9.39147 57.5927 8.89535C57.9155 8.39147 58.3096 8.00775 58.775 7.74419C59.2479 7.48062 59.7996 7.34884 60.4301 7.34884C61.0832 7.34884 61.6574 7.46512 62.1528 7.69767C62.6557 7.93023 63.0761 8.2907 63.4139 8.77907C63.7592 9.25969 64.0181 9.87597 64.1908 10.6279C64.3634 11.3721 64.4497 12.2636 64.4497 13.3023ZM62.4568 14.4767V13.3023C62.4568 12.6047 62.4043 11.9961 62.2992 11.4767C62.2016 10.9574 62.044 10.5271 61.8263 10.186C61.6086 9.84496 61.3346 9.58915 61.0043 9.4186C60.6741 9.24806 60.2762 9.16279 59.8108 9.16279C59.413 9.16279 59.0602 9.24806 58.7525 9.4186C58.4522 9.58915 58.1932 9.82171 57.9756 10.1163C57.7579 10.4031 57.5777 10.7326 57.4351 11.1047C57.2925 11.469 57.1874 11.8488 57.1198 12.2442V15.7674C57.2474 16.2636 57.4163 16.7326 57.6265 17.1744C57.8367 17.6085 58.1182 17.9612 58.471 18.2326C58.8313 18.5039 59.2854 18.6395 59.8334 18.6395C60.2912 18.6395 60.6853 18.5543 61.0156 18.3837C61.3459 18.2132 61.6161 17.9574 61.8263 17.6163C62.044 17.2674 62.2016 16.8333 62.2992 16.314C62.4043 15.7868 62.4568 15.1744 62.4568 14.4767Z" fill="#996DFF"/>
<path d="M69.0098 10V25H67.0169V7.5814H68.8297L69.0098 10ZM75.8218 13.3023V14.4767C75.8218 15.469 75.7317 16.3372 75.5516 17.0814C75.3789 17.8178 75.1199 18.4341 74.7746 18.9302C74.4369 19.4186 74.0203 19.7868 73.5249 20.0349C73.0294 20.2752 72.4627 20.3953 71.8247 20.3953C71.1866 20.3953 70.6312 20.2713 70.1583 20.0233C69.6929 19.7674 69.2988 19.3992 68.976 18.9186C68.6608 18.438 68.4093 17.8605 68.2216 17.186C68.0415 16.5039 67.9176 15.7403 67.8501 14.8953V13.1047C67.9176 12.2132 68.0415 11.4147 68.2216 10.7093C68.4018 9.99612 68.6495 9.39147 68.9648 8.89535C69.2875 8.39147 69.6816 8.00775 70.147 7.74419C70.6199 7.48062 71.1716 7.34884 71.8022 7.34884C72.4552 7.34884 73.0294 7.46512 73.5249 7.69767C74.0278 7.93023 74.4481 8.2907 74.7859 8.77907C75.1312 9.25969 75.3902 9.87597 75.5628 10.6279C75.7355 11.3721 75.8218 12.2636 75.8218 13.3023ZM73.8289 14.4767V13.3023C73.8289 12.6047 73.7763 11.9961 73.6712 11.4767C73.5736 10.9574 73.416 10.5271 73.1983 10.186C72.9806 9.84496 72.7067 9.58915 72.3764 9.4186C72.0461 9.24806 71.6483 9.16279 71.1829 9.16279C70.7851 9.16279 70.4323 9.24806 70.1245 9.4186C69.8242 9.58915 69.5653 9.82171 69.3476 10.1163C69.1299 10.4031 68.9498 10.7326 68.8071 11.1047C68.6645 11.469 68.5594 11.8488 68.4919 12.2442V15.7674C68.6195 16.2636 68.7884 16.7326 68.9986 17.1744C69.2087 17.6085 69.4902 17.9612 69.843 18.2326C70.2033 18.5039 70.6574 18.6395 71.2054 18.6395C71.6633 18.6395 72.0574 18.5543 72.3876 18.3837C72.7179 18.2132 72.9881 17.9574 73.1983 17.6163C73.416 17.2674 73.5736 16.8333 73.6712 16.314C73.7763 15.7868 73.8289 15.1744 73.8289 14.4767Z" fill="#996DFF"/>
<path d="M77.9723 14.4767V13.2791C77.9723 12.3023 78.0924 11.4457 78.3326 10.7093C78.5728 9.96512 78.9069 9.34496 79.3347 8.84884C79.7626 8.35271 80.2618 7.98062 80.8322 7.73256C81.4027 7.47674 82.0145 7.34884 82.6675 7.34884C83.3356 7.34884 83.9549 7.47674 84.5253 7.73256C85.0958 7.98062 85.595 8.35271 86.0228 8.84884C86.4582 9.34496 86.796 9.96512 87.0362 10.7093C87.2764 11.4457 87.3965 12.3023 87.3965 13.2791V14.4767C87.3965 15.4535 87.2764 16.314 87.0362 17.0581C86.796 17.7946 86.462 18.4109 86.0341 18.907C85.6062 19.4031 85.1071 19.7752 84.5366 20.0233C83.9661 20.2713 83.3506 20.3953 82.69 20.3953C82.0295 20.3953 81.414 20.2713 80.8435 20.0233C80.273 19.7752 79.7701 19.4031 79.3347 18.907C78.9069 18.4109 78.5728 17.7946 78.3326 17.0581C78.0924 16.314 77.9723 15.4535 77.9723 14.4767ZM79.9653 13.2791V14.4767C79.9653 15.1667 80.0328 15.7713 80.1679 16.2907C80.303 16.8101 80.4944 17.2442 80.7422 17.593C80.9899 17.9419 81.2789 18.2054 81.6091 18.3837C81.9394 18.5543 82.2997 18.6395 82.69 18.6395C83.1404 18.6395 83.5345 18.5543 83.8723 18.3837C84.2176 18.2054 84.5028 17.9419 84.728 17.593C84.9532 17.2442 85.1221 16.8101 85.2347 16.2907C85.3473 15.7713 85.4036 15.1667 85.4036 14.4767V13.2791C85.4036 12.5891 85.336 11.9884 85.2009 11.4767C85.0658 10.9574 84.8744 10.5233 84.6267 10.1744C84.379 9.81783 84.0862 9.55426 83.7484 9.38372C83.4182 9.20543 83.0579 9.11628 82.6675 9.11628C82.2847 9.11628 81.9282 9.20543 81.5979 9.38372C81.2676 9.55426 80.9786 9.81783 80.7309 10.1744C80.4907 10.5233 80.303 10.9574 80.1679 11.4767C80.0328 11.9884 79.9653 12.5891 79.9653 13.2791Z" fill="#996DFF"/>
<path d="M91.9566 9.55814V20.1628H89.9636V7.5814H91.889L91.9566 9.55814ZM94.9854 7.51163L94.9966 9.51163C94.8315 9.47287 94.6814 9.44961 94.5462 9.44186C94.4186 9.42636 94.2685 9.4186 94.0959 9.4186C93.7205 9.4186 93.3903 9.49612 93.105 9.65116C92.8273 9.8062 92.5871 10.0233 92.3844 10.3023C92.1818 10.5814 92.0204 10.9147 91.9003 11.3023C91.7802 11.6822 91.6976 12.1008 91.6526 12.5581L91.1346 12.907C91.1346 12.1473 91.1909 11.4341 91.3035 10.7674C91.4236 10.1008 91.6075 9.51163 91.8552 9C92.1029 8.48062 92.4182 8.07752 92.801 7.7907C93.1914 7.49612 93.6567 7.34884 94.1972 7.34884C94.3173 7.34884 94.4637 7.36822 94.6363 7.40698C94.8165 7.43798 94.9328 7.47287 94.9854 7.51163Z" fill="#996DFF"/>
<path d="M102 7.5814V9.23256H96.314V7.5814H102ZM98.1718 4.52326H100.165V17.0465C100.165 17.4729 100.213 17.7946 100.311 18.0116C100.416 18.2287 100.548 18.3721 100.705 18.4419C100.863 18.5116 101.032 18.5465 101.212 18.5465C101.347 18.5465 101.497 18.531 101.662 18.5C101.827 18.4612 101.94 18.4302 102 18.407L101.989 20.1628C101.854 20.2171 101.673 20.2674 101.448 20.314C101.223 20.3682 100.938 20.3953 100.593 20.3953C100.165 20.3953 99.7669 20.2907 99.3991 20.0814C99.0313 19.8721 98.7348 19.5233 98.5096 19.0349C98.2844 18.5388 98.1718 17.8721 98.1718 17.0349V4.52326Z" fill="#996DFF"/>
</svg>
